<?xml version="1.0" encoding="utf-8"?>
<!-- Uploaded to: SVG Repo, www.svgrepo.com, Generator: SVG Repo Mixer Tools -->
<svg fill="#000000" width="800px" height="800px" viewBox="0 0 32 32" version="1.1" xmlns="http://www.w3.org/2000/svg">
<title>androidstudio</title>
<path d="M11.766 6.93c0.004 0.352 0.29 0.636 0.643 0.636 0.002 0 0.005 0 0.007-0h-0c0.003 0 0.007 0 0.010 0 0.175 0 0.333-0.071 0.448-0.185l-0 0c0.145-0.12 0.237-0.301 0.237-0.503 0-0.359-0.291-0.651-0.651-0.651-0.202 0-0.382 0.092-0.502 0.236l-0.001 0.001c-0.118 0.117-0.192 0.279-0.192 0.458 0 0.003 0 0.005 0 0.008v-0zM18.902 6.938c0.010 0.351 0.298 0.632 0.65 0.632 0.358 0 0.648-0.289 0.65-0.647v-0c-0.002-0.358-0.293-0.647-0.651-0.647-0.179 0-0.341 0.072-0.458 0.189l0-0c-0.119 0.117-0.192 0.279-0.192 0.458 0 0.005 0 0.011 0 0.016v-0.001zM12.191 3.668l-1.294-2.234c-0.023-0.039-0.037-0.086-0.037-0.137s0.014-0.097 0.037-0.138l-0.001 0.001c0.051-0.078 0.135-0.131 0.232-0.137l0.001-0c0.099 0.001 0.185 0.055 0.232 0.135l0.001 0.001 1.31 2.266c0.975-0.449 2.116-0.711 3.319-0.711s2.343 0.262 3.369 0.732l-0.050-0.021 1.302-2.266c0.050-0.062 0.127-0.101 0.212-0.101 0.151 0 0.273 0.122 0.273 0.273 0 0.036-0.007 0.071-0.020 0.103l0.001-0.002-1.286 2.234c2.032 1.133 3.476 3.112 3.859 5.449l0.006 0.044-15.332-0.002c0.39-2.38 1.833-4.359 3.826-5.471l0.039-0.020zM4.282 7.285v0.024c0.009 1.021 0.835 1.847 1.855 1.856h0.001l0.163-0.004h1.408c0.25-1.692 0.982-3.18 2.050-4.357l-0.006 0.007h-3.613c-1.148 0.006-2.112 0.79-2.391 1.851l-0.004 0.017c0.303 0.041 0.534 0.296 0.536 0.606v0zM26.109 14.549l-0.016-0h-1.020c-0.071 0-0.129 0.058-0.129 0.129v0 16.111c0 0 0 0 0 0 0 0.068 0.053 0.124 0.12 0.128l0 0h1.053c1.23-0.005 2.226-1.003 2.226-2.234v0-16.368c0 0 0 0 0 0 0 1.234-1 2.234-2.234 2.234-0 0-0 0-0 0v0zM15.946 22.967c-0.001 0-0.002 0-0.002 0-0.138 0-0.257 0.078-0.317 0.192l-0.001 0.002-1.763 3.787h4.21l-1.817-3.785c-0.056-0.116-0.173-0.195-0.308-0.196h-0zM17.228 16.382c0-0.003 0-0.006 0-0.009 0-0.756-0.61-1.369-1.364-1.374h-0.001c-0.382 0-0.728 0.153-0.981 0.402l0-0c-0.249 0.249-0.403 0.592-0.403 0.972 0 0.756 0.61 1.369 1.364 1.374h0.010c0.755-0 1.369-0.61 1.374-1.364v-0zM22.517 29.149c0.075 0.154 0.119 0.334 0.119 0.525 0 0.67-0.544 1.214-1.214 1.214-0.131 0-0.258-0.021-0.376-0.059l0.009 0.002c-0.030-0.010-0.057-0.026-0.087-0.038-0.109-0.045-0.202-0.1-0.287-0.167l0.003 0.002c-0.034-0.025-0.063-0.050-0.091-0.075l0.001 0.001c-0.106-0.096-0.193-0.21-0.259-0.337l-0.003-0.007-3.512-7.312c-0.158-0.33-0.489-0.554-0.873-0.554-0 0-0 0-0 0h-0.003c-0.386 0.002-0.72 0.225-0.881 0.549l-0.003 0.006-3.423 7.352c-0.176 0.398-0.549 0.679-0.991 0.723l-0.005 0c-0 0-0 0-0 0-0.127 0-0.251-0.010-0.372-0.028l0.014 0.002c-0.069-0.017-0.128-0.036-0.185-0.059l0.008 0.003c-0.038-0.014-0.076-0.025-0.112-0.042-0.067-0.035-0.124-0.072-0.177-0.113l0.003 0.002c-0.027-0.019-0.057-0.034-0.083-0.056-0.261-0.224-0.425-0.554-0.425-0.922 0-0.196 0.046-0.381 0.129-0.544l-0.003 0.007 5.135-11.049c-0.555-0.413-0.91-1.067-0.91-1.804 0-1.114 0.813-2.038 1.878-2.213l0.013-0.002v-1.406c-0-0.005-0-0.012-0-0.018 0-0.158 0.083-0.297 0.207-0.375l0.002-0.001c0.063-0.038 0.139-0.061 0.221-0.061s0.158 0.023 0.223 0.062l-0.002-0.001c0.126 0.079 0.209 0.218 0.209 0.376 0 0.006-0 0.013-0 0.019l0-0.001v1.446l0.016 0.008c0.814 0.23 1.433 0.885 1.605 1.705l0.003 0.015c0.032 0.142 0.051 0.305 0.051 0.473 0 0.71-0.332 1.342-0.85 1.749l-0.005 0.004 4.229 8.799zM25.072 13.924c-0.415 0.001-0.752 0.337-0.752 0.753v12.27h-2.169l-4.162-8.66c0.445-0.506 0.716-1.173 0.716-1.904 0-1.154-0.676-2.149-1.653-2.613l-0.018-0.008v-1.014c0-0.007 0-0.015 0-0.023 0-0.379-0.2-0.712-0.5-0.898l-0.005-0.003c-0.156-0.097-0.346-0.155-0.55-0.155-0.582 0-1.054 0.472-1.054 1.054 0 0.018 0 0.035 0.001 0.052l-0-0.002-0 0.9c-1.112 0.411-1.891 1.463-1.891 2.696 0 0.758 0.294 1.448 0.775 1.961l-0.001-0.002-4.005 8.619h-3.671c-1.366-0.009-2.47-1.116-2.475-2.482v-17.18c-0 0.004-0 0.008-0 0.013 0 1.371 1.108 2.484 2.478 2.491h0.001q0.083 0 0.165-0.005h18.401s3.163-0.273 3.571 1.921c-0.312 0.032-0.553 0.293-0.555 0.61v0c-0.003 0.89-0.725 1.61-1.615 1.61-0.004 0-0.007 0-0.011-0h-1.021z"></path>
</svg>